<?xml version="1.0" encoding="UTF-8"?>
<svg id="Layer_1" data-name="Layer 1" xmlns="http://www.w3.org/2000/svg" version="1.1" viewBox="0 0 110 135">
  <defs>
    <style>
      .cls-1 {
        fill: gold;
        stroke-width: 0px;
      }
    </style>
  </defs>
  <path class="cls-1" d="M81.6,65.8c-.8-.6-1.9-.6-2.6,0l-11.3,9.8-11.3-9.8c-.8-.6-1.9-.6-2.6,0l-11.3,9.8-11.3-9.8c-.8-.6-1.9-.6-2.6,0l-10.2,8.8c-.6.5-.8,1.3-.6,2.1,2.3,7.6,6.8,14.3,13.1,19.3,0,0,0,0,.1,0h0c.2.2.4.3.6.4,4.6,3.5,10,6,15.7,7.2h0c2.6.6,5.3.8,7.9.8,13.8,0,26.5-7.3,33.6-19.1,0,0,0-.2.2-.3,1.6-2.6,2.8-5.5,3.7-8.4.2-.8,0-1.6-.6-2.1l-10.2-8.8h-.3ZM45.8,99.3c-3.8-1.1-7.4-2.7-10.7-5,.2-.3.4-.5.7-.8.6-.8,1.2-1.5,1.8-2.1.8-.8,2.3-2.2,4-2.1,1.8,0,3.3,1.9,3.9,3.5h0c.5,2.1.6,4.3.3,6.4h0ZM49.8,100.1c.5-2.8.3-5.8-.4-8.5-1-3-3.7-6.1-7.5-6.3-2.7,0-5.3,1.2-7.1,3.3-.8.8-1.4,1.6-2.1,2.4-.2.3-.5.6-.7.9-4.7-4-8.2-9.3-10.2-15.1l7.9-6.8,11.3,9.8c.8.6,1.9.6,2.6,0l11.3-9.8,11.3,9.8c.8.6,1.9.6,2.6,0l11.3-9.8,7.9,6.8h0c-.5,1.6-1.2,3.1-1.9,4.6-.2,0-.4-.2-.6-.3-1.8-1-3.9-1.2-5.9-.7-2.6.7-4.2,2.7-5.6,4.4h0c-.8,1.2-2,2.3-3.2,3-1.2.4-2.5.6-3.8.5-2.3,0-4.8,0-6.8,2h0c-1.8,1.8-2.7,4.4-2.2,7,0,1.1.4,2.1.7,3.2-3,.3-6,.3-9-.2h0v-.2ZM62.8,99.6c-.4-1-.6-2-.8-3-.2-1.2,0-2.5.9-3.5.9-.8,2.5-.9,4.3-.9h0c1.8,0,3.6-.2,5.3-.9,1.9-1,3.5-2.4,4.7-4.1,1.2-1.5,2.2-2.7,3.6-3.1,1-.2,2.1,0,3,.4,0,0,.3.2.4.2-5,7.5-12.7,12.8-21.5,14.9h0Z"/>
  <path class="cls-1" d="M93.3,46.9h0c-1.3-6.4-4.1-12.4-8.3-17.4,0-.1-.2-.2-.3-.3h0c-5.2-6.1-12.1-10.4-19.8-12.4h0c-6.8-1.8-14-1.7-20.7.3-6.8,2-12.8,5.7-17.6,10.8-.1,0-.2.2-.3.3-6.6,7.2-10.3,16.6-10.3,26.4s.5,7.6,1.6,11.2c.2.6.7,1.2,1.4,1.3s1.4,0,1.9-.4l8.9-7.7,11.3,9.8c.8.6,1.9.6,2.6,0l11.3-9.8,11.3,9.8c.8.6,1.9.6,2.6,0l11.3-9.8,8.9,7.7c.5.4,1.2.6,1.9.4s1.2-.7,1.4-1.3c1.1-3.6,1.7-7.4,1.6-11.2,0-2.6-.3-5.1-.8-7.6h.2ZM88.9,45.7c-1.4,0-2.8,0-4.2-.5-2.7-1-5.2-4.3-4.4-7.2.6-1.6,1.6-3,2.8-4.2,2.7,3.6,4.6,7.6,5.7,11.9h0ZM61.4,20.1c-.6,1.6-.9,3.3-.8,5,0,1.3.4,2.6.8,3.8.2.7.4,1.4.5,2,.2.8.4,2.7-.5,3.7s-3,.9-4.6.4c-.7-.3-1.5-.6-2.3-.9h0c-1.5-.8-3.1-1.3-4.8-1.6-3.7-.5-7.4.9-9.8,3.8-.4.5-.8,1.1-1.1,1.6-.9,1.4-1.6,2.3-2.4,2.4-.7,0-1.3-.4-1.6-1-.5-.8-.9-1.7-1.2-2.6l-.2-.6c-.9-2.2-1.9-4.4-3.2-6.4,8.1-8.1,19.8-11.7,31.1-9.6h0ZM89.4,61.5l-7.8-6.7c-.8-.6-1.9-.6-2.6,0l-11.3,9.8-11.3-9.8c-.8-.6-1.9-.6-2.6,0l-11.3,9.8-11.3-9.8c-.8-.6-1.9-.6-2.6,0l-7.7,6.7h0c-2.1-10.1.5-20.6,6.9-28.7.9,1.5,1.6,3.1,2.2,4.7l.2.5c.4,1.3,1,2.5,1.8,3.6,1.1,1.6,2.8,2.5,4.8,2.6h.5c2.7-.3,4.1-2.4,5.3-4.1.3-.5.6-.9.9-1.3,1.5-1.8,3.8-2.7,6-2.4,1.3.3,2.6.7,3.8,1.3.8.4,1.7.8,2.6,1.1,2.8.9,6.6,1.1,8.9-1.5,1.5-1.7,2.1-4.3,1.4-7.2-.2-.8-.4-1.6-.6-2.3h0c-.3-1-.6-2-.7-3,0-1.3,0-2.6.7-3.7,5.8,1.8,11.1,5.1,15.3,9.6-1.7,1.7-3.4,3.6-4.1,6.2-1.3,4.7,1.8,10.1,6.8,12h0c1.5.6,3.1.9,4.8.8h1.6c.6,4,.5,8-.3,11.9h-.3Z"/>
</svg>