<?xml version="1.0" encoding="utf-8"?>
<!-- Generator: Adobe Illustrator 26.3.1, SVG Export Plug-In . SVG Version: 6.00 Build 0)  -->
<svg version="1.1" id="Layer_1" xmlns="http://www.w3.org/2000/svg" xmlns:xlink="http://www.w3.org/1999/xlink" x="0px" y="0px"
	 viewBox="0 0 110 135" style="enable-background:new 0 0 110 135;" xml:space="preserve">
<style type="text/css">
	.st0{fill:#5C5CF5;}
</style>
<path class="st0" d="M81.6,65.8c-0.8-0.6-1.9-0.6-2.6,0l-11.3,9.8l-11.3-9.8c-0.8-0.6-1.9-0.6-2.6,0l-11.3,9.8l-11.3-9.8
	c-0.8-0.6-1.9-0.6-2.6,0l-10.2,8.8c-0.6,0.5-0.8,1.3-0.6,2.1C20.1,84.3,24.6,91,30.9,96c0,0,0,0,0.1,0l0,0c0.2,0.2,0.4,0.3,0.6,0.4
	c4.6,3.5,10,6,15.7,7.2l0,0c2.6,0.6,5.3,0.8,7.9,0.8c13.8,0,26.5-7.3,33.6-19.1c0,0,0-0.2,0.2-0.3c1.6-2.6,2.8-5.5,3.7-8.4
	c0.2-0.8,0-1.6-0.6-2.1l-10.2-8.8h-0.3V65.8z M45.8,99.3c-3.8-1.1-7.4-2.7-10.7-5c0.2-0.3,0.4-0.5,0.7-0.8c0.6-0.8,1.2-1.5,1.8-2.1
	c0.8-0.8,2.3-2.2,4-2.1c1.8,0,3.3,1.9,3.9,3.5l0,0C46,94.9,46.1,97.1,45.8,99.3L45.8,99.3L45.8,99.3z M49.8,100.1
	c0.5-2.8,0.3-5.8-0.4-8.5c-1-3-3.7-6.1-7.5-6.3c-2.7,0-5.3,1.2-7.1,3.3c-0.8,0.8-1.4,1.6-2.1,2.4c-0.2,0.3-0.5,0.6-0.7,0.9
	c-4.7-4-8.2-9.3-10.2-15.1l7.9-6.8L41,79.8c0.8,0.6,1.9,0.6,2.6,0L54.9,70l11.3,9.8c0.8,0.6,1.9,0.6,2.6,0L80.1,70l7.9,6.8l0,0
	c-0.5,1.6-1.2,3.1-1.9,4.6c-0.2,0-0.4-0.2-0.6-0.3c-1.8-1-3.9-1.2-5.9-0.7c-2.6,0.7-4.2,2.7-5.6,4.4l0,0c-0.8,1.2-2,2.3-3.2,3
	c-1.2,0.4-2.5,0.6-3.8,0.5c-2.3,0-4.8,0-6.8,2l0,0c-1.8,1.8-2.7,4.4-2.2,7c0,1.1,0.4,2.1,0.7,3.2c-3,0.3-6,0.3-9-0.2l0,0L49.8,100.1
	L49.8,100.1z M62.8,99.6c-0.4-1-0.6-2-0.8-3c-0.2-1.2,0-2.5,0.9-3.5c0.9-0.8,2.5-0.9,4.3-0.9l0,0c1.8,0,3.6-0.2,5.3-0.9
	c1.9-1,3.5-2.4,4.7-4.1c1.2-1.5,2.2-2.7,3.6-3.1c1-0.2,2.1,0,3,0.4c0,0,0.3,0.2,0.4,0.2C79.2,92.2,71.5,97.5,62.8,99.6L62.8,99.6
	L62.8,99.6z"/>
<path class="st0" d="M93.3,46.9L93.3,46.9C92,40.5,89.2,34.5,85,29.5c0-0.1-0.2-0.2-0.3-0.3l0,0c-5.2-6.1-12.1-10.4-19.8-12.4l0,0
	c-6.8-1.8-14-1.7-20.7,0.3c-6.8,2-12.8,5.7-17.6,10.8c-0.1,0-0.2,0.2-0.3,0.3C19.7,35.4,16,44.8,16,54.6s0.5,7.6,1.6,11.2
	c0.2,0.6,0.7,1.2,1.4,1.3s1.4,0,1.9-0.4l8.9-7.7l11.3,9.8c0.8,0.6,1.9,0.6,2.6,0L55,59l11.3,9.8c0.8,0.6,1.9,0.6,2.6,0L80.2,59
	l8.9,7.7c0.5,0.4,1.2,0.6,1.9,0.4s1.2-0.7,1.4-1.3c1.1-3.6,1.7-7.4,1.6-11.2c0-2.6-0.3-5.1-0.8-7.6L93.3,46.9L93.3,46.9z M88.9,45.7
	c-1.4,0-2.8,0-4.2-0.5c-2.7-1-5.2-4.3-4.4-7.2c0.6-1.6,1.6-3,2.8-4.2C85.8,37.4,87.7,41.4,88.9,45.7L88.9,45.7L88.9,45.7z
	 M61.4,20.1c-0.6,1.6-0.9,3.3-0.8,5c0,1.3,0.4,2.6,0.8,3.8c0.2,0.7,0.4,1.4,0.5,2c0.2,0.8,0.4,2.7-0.5,3.7s-3,0.9-4.6,0.4
	c-0.7-0.3-1.5-0.6-2.3-0.9l0,0c-1.5-0.8-3.1-1.3-4.8-1.6c-3.7-0.5-7.4,0.9-9.8,3.8c-0.4,0.5-0.8,1.1-1.1,1.6
	c-0.9,1.4-1.6,2.3-2.4,2.4c-0.7,0-1.3-0.4-1.6-1c-0.5-0.8-0.9-1.7-1.2-2.6l-0.2-0.6c-0.9-2.2-1.9-4.4-3.2-6.4
	C38.3,21.6,50,18,61.4,20.1L61.4,20.1L61.4,20.1z M89.4,61.5l-7.8-6.7c-0.8-0.6-1.9-0.6-2.6,0l-11.3,9.8l-11.3-9.8
	c-0.8-0.6-1.9-0.6-2.6,0l-11.3,9.8l-11.3-9.8c-0.8-0.6-1.9-0.6-2.6,0l-7.7,6.7l0,0c-2.1-10.1,0.5-20.6,6.9-28.7
	c0.9,1.5,1.6,3.1,2.2,4.7l0.2,0.5c0.4,1.3,1,2.5,1.8,3.6c1.1,1.6,2.8,2.5,4.8,2.6h0.5c2.7-0.3,4.1-2.4,5.3-4.1
	c0.3-0.5,0.6-0.9,0.9-1.3c1.5-1.8,3.8-2.7,6-2.4c1.3,0.3,2.6,0.7,3.8,1.3c0.8,0.4,1.7,0.8,2.6,1.1c2.8,0.9,6.6,1.1,8.9-1.5
	c1.5-1.7,2.1-4.3,1.4-7.2c-0.2-0.8-0.4-1.6-0.6-2.3l0,0c-0.3-1-0.6-2-0.7-3c0-1.3,0-2.6,0.7-3.7c5.8,1.8,11.1,5.1,15.3,9.6
	c-1.7,1.7-3.4,3.6-4.1,6.2c-1.3,4.7,1.8,10.1,6.8,12l0,0c1.5,0.6,3.1,0.9,4.8,0.8H90c0.6,4,0.5,8-0.3,11.9L89.4,61.5L89.4,61.5z"/>
</svg>
